<svg xmlns="http://www.w3.org/2000/svg" xmlns:xlink="http://www.w3.org/1999/xlink">
  <symbol id="footer-youtube" viewBox="0 0 24.9946 17.9946"  width="24.994629" height="17.994629" fill="none" customFrame="#000000">
    <path id="Vector"
          d="M19.8102 0L5.18981 0C2.32646 0 0 2.36726 0 5.28081L0 12.7137C0 15.6327 2.32646 17.9945 5.18981 17.9945L19.8048 17.9945C22.6735 17.9945 24.9946 15.6272 24.9946 12.7137L24.9946 5.28081C25 2.36726 22.6735 0 19.8102 0ZM16.2961 9.36419L9.4577 12.6806C9.27332 12.7689 9.06725 12.6364 9.06725 12.4267L9.06725 5.5843C9.06725 5.37462 9.28417 5.24218 9.46312 5.33599L16.3015 8.86205C16.5076 8.96689 16.5022 9.26487 16.2961 9.36419Z"
          fill="currentColor" fill-rule="nonzero"/>
  </symbol>
</svg>
