<svg xmlns="http://www.w3.org/2000/svg" xmlns:xlink="http://www.w3.org/1999/xlink">
  <symbol id="footer-twitch" viewBox="0 0 19.1489 18.165" width="19.148926" height="18.165039" fill="none"
          customFrame="#000000">
    <g id="twitch">
      <g id="Group">
        <path id="Subtract"
              d="M19.1489 0L19.1489 12.9451L16.5957 15.4506L10.2128 15.4506L7.65957 18.1648L5.31915 18.1648L5.31915 14.4066L0 14.4066L0 2.2967L2.12766 0L19.1489 0ZM6.59566 12.7363L3.1914 12.7363C2.95736 12.7363 2.76587 12.5484 2.76587 12.3188L2.76587 2.08799C2.76587 1.85832 2.95736 1.67041 3.1914 1.67041L16.8084 1.67041C17.0425 1.67041 17.234 1.85832 17.234 2.08799L17.234 10.0221C17.234 10.1369 17.1914 10.2413 17.1116 10.3196L14.7712 12.6163C14.6914 12.6946 14.5797 12.7363 14.468 12.7363L10.5584 12.7363L7.26055 14.96C7.1914 15.0069 7.10629 15.033 7.02119 15.033C6.95204 15.033 6.88821 15.0174 6.82438 14.9861C6.68076 14.913 6.59566 14.7721 6.59566 14.6155L6.59566 12.7363Z"
              fill="currentColor" fill-rule="evenodd"/>
      </g>
      <path id="Vector"
            d="M12.9787 9.08256L12.9787 4.90674L11.2766 4.90674L11.2766 9.08256L12.9787 9.08256ZM8.72337 9.08256L8.72337 4.90674L7.02124 4.90674L7.02124 9.08256L8.72337 9.08256Z"
            fill="currentColor" fill-rule="nonzero"/>
    </g>
  </symbol>
</svg>
