<svg xmlns="http://www.w3.org/2000/svg" xmlns:xlink="http://www.w3.org/1999/xlink">
  <symbol id="xbox-icon" viewBox="0 0 30.0417 27.5116" width="30.041748" height="27.511566" fill="none"
          customFrame="#000000">
    <path id="Vector"
          d="M23.5347 0.166391C23.2354 -0.0387267 22.854 -0.0563083 22.5313 0.125368C20.7769 1.13338 19.0812 2.2879 17.4794 3.55963C17.2681 3.72959 17.1391 3.98159 17.1273 4.25117C17.1156 4.52076 17.2212 4.78448 17.4148 4.97202C20.7358 8.13084 25.336 17.8183 26.3921 22.2723C24.1038 18.4043 18.9991 9.30294 15.6604 6.191C15.3025 5.85696 14.7392 5.85696 14.3813 6.191C11.0368 9.30294 5.94967 18.4102 3.66134 22.284C4.71749 17.83 9.3059 8.13084 12.6269 4.97202C12.8264 4.78448 12.932 4.52076 12.9203 4.25117C12.9086 3.98159 12.7795 3.72959 12.5682 3.55963C10.9664 2.2879 9.26483 1.13338 7.5163 0.125368C7.20533 -0.0563083 6.8122 -0.0387267 6.51296 0.166391C2.43502 2.97358 0 7.58581 0 12.5086C0 16.107 1.29672 19.5764 3.66134 22.284C6.48949 25.601 10.6261 27.5116 15.0209 27.5116C19.4157 27.5116 23.5581 25.6069 26.3921 22.2781C28.745 19.5823 30.0417 16.1129 30.0417 12.5086C30.0417 7.58581 27.6067 2.97358 23.5347 0.166391Z"
          fill="currentColor" fill-rule="nonzero"/>
  </symbol>
</svg>
