<svg viewBox="0 0 30.126 30" xmlns="http://www.w3.org/2000/svg" xmlns:xlink="http://www.w3.org/1999/xlink" width="30.125977" height="30.000000" fill="none" customFrame="#000000">
	<g id="steam icon">
		<path id="Union" d="M15.0627 0C23.3817 0 30.1256 6.71573 30.1256 15C30.1256 23.2843 23.3817 30 15.0627 30C8.32976 30 2.62859 25.601 0.699379 19.5317C1.44195 19.9488 4.1834 21.0845 4.33275 21.1317L6.34725 21.796C7.25281 24.4723 10.1729 25.9068 12.8605 25.0018C14.6135 24.4146 15.9113 22.9368 16.2648 21.1317L22.0565 17.0162C25.4656 16.6937 27.9644 13.69 27.6448 10.3013C27.3445 7.16765 24.715 4.76088 21.5432 4.72718C18.1485 4.732 15.3883 7.44684 15.3447 10.8163L11.8678 15.0378C10.7055 14.8693 9.52396 15.1196 8.53608 15.7406L4.71047 14.0173C4.55067 13.9451 1.55903 12.8573 1.41375 12.9488C1.26363 13.0451 0.796426 13.0799 0.796426 13.258L1.19675 19.5306C0.940388 19.4558 0.764447 19.4112 0.655628 19.3917C0.229191 18.0027 -0.000244141 16.528 -0.000244141 15C-0.000244141 6.71573 6.74366 0 15.0627 0ZM24.6426 10.8884C24.6426 12.5898 23.255 13.9691 21.5433 13.9691C19.8316 13.9691 18.444 12.5898 18.444 10.8884C18.444 9.18703 19.8316 7.80776 21.5433 7.80776C23.255 7.80776 24.6426 9.18703 24.6426 10.8884ZM23.6116 10.8885C23.6116 12.0236 22.6859 12.9438 21.5438 12.9438C20.4018 12.9438 19.476 12.0236 19.476 10.8885C19.476 9.75329 20.4018 8.83307 21.5438 8.83307C22.6859 8.83307 23.6116 9.75329 23.6116 10.8885ZM11.2099 23.2112C10.745 23.2112 10.285 23.1053 9.86851 22.9031C9.61186 22.778 9.50533 22.4747 9.63123 22.2148C9.75713 21.9597 10.0622 21.8538 10.3237 21.9789C11.3358 22.4988 12.5851 22.1089 13.1081 21.0981C13.6311 20.0872 13.2388 18.8501 12.2219 18.3303C12.188 18.311 12.1541 18.2966 12.1202 18.2821C11.8636 18.157 11.7571 17.8537 11.883 17.5938C12.0089 17.3387 12.3139 17.2328 12.5754 17.3579C14.1153 18.0992 14.7642 19.938 14.0185 21.4735C13.6601 22.21 13.0258 22.7732 12.2461 23.0427C11.9072 23.1534 11.5634 23.2112 11.2099 23.2112Z" fill="rgb(255,181,72)" fill-rule="evenodd" />
		<path id="Union" d="M30.1256 15C30.1256 23.2843 23.3817 30 15.0627 30C8.32976 30 2.62859 25.601 0.699379 19.5317C1.44195 19.9488 4.1834 21.0845 4.33275 21.1317L6.34725 21.796C7.25281 24.4723 10.1729 25.9068 12.8605 25.0018C14.6135 24.4146 15.9113 22.9368 16.2648 21.1317L22.0565 17.0162C25.4656 16.6937 27.9644 13.69 27.6448 10.3013C27.3445 7.16765 24.715 4.76088 21.5432 4.72718C18.1485 4.732 15.3883 7.44684 15.3447 10.8163L11.8678 15.0378C10.7055 14.8693 9.52396 15.1196 8.53608 15.7406L4.71047 14.0173C4.55067 13.9451 1.55903 12.8573 1.41375 12.9488C1.26363 13.0451 0.796426 13.0799 0.796426 13.258L1.19675 19.5306C0.940388 19.4558 0.764447 19.4112 0.655628 19.3917C0.229191 18.0027 -0.000244141 16.528 -0.000244141 15C-0.000244141 6.71573 6.74366 0 15.0627 0C23.3817 0 30.1256 6.71573 30.1256 15ZM21.5433 13.9691C19.8316 13.9691 18.444 12.5898 18.444 10.8884C18.444 9.18703 19.8316 7.80776 21.5433 7.80776C23.255 7.80776 24.6426 9.18703 24.6426 10.8884C24.6426 12.5898 23.255 13.9691 21.5433 13.9691ZM21.5438 12.9438C20.4018 12.9438 19.476 12.0236 19.476 10.8885C19.476 9.75329 20.4018 8.83307 21.5438 8.83307C22.6859 8.83307 23.6116 9.75329 23.6116 10.8885C23.6116 12.0236 22.6859 12.9438 21.5438 12.9438ZM9.86851 22.9031C9.61186 22.778 9.50533 22.4747 9.63123 22.2148C9.75713 21.9597 10.0622 21.8538 10.3237 21.9789C11.3358 22.4988 12.5851 22.1089 13.1081 21.0981C13.6311 20.0872 13.2388 18.8501 12.2219 18.3303C12.188 18.311 12.1541 18.2966 12.1202 18.2821C11.8636 18.157 11.7571 17.8537 11.883 17.5938C12.0089 17.3387 12.3139 17.2328 12.5754 17.3579C14.1153 18.0992 14.7642 19.938 14.0185 21.4735C13.6601 22.21 13.0258 22.7732 12.2461 23.0427C11.9072 23.1534 11.5634 23.2112 11.2099 23.2112C10.745 23.2112 10.285 23.1053 9.86851 22.9031Z" fill-rule="evenodd" stroke="rgb(150.96,150.96,150.96)" stroke-opacity="0" stroke-width="0" />
	</g>
</svg>
